HIERARCHY
ROOT hip
{
	OFFSET 0.000000 0.000000 0.000000
	CHANNELS 6 Xposition Yposition Zposition Xrotation Zrotation Yrotation 
	JOINT abdomen
	{
		OFFSET 0.000000 3.422050 0.000000
		CHANNELS 3 Xrotation Zrotation Yrotation 
		JOINT chest
		{
			OFFSET 0.000000 8.486693 -0.684411
			CHANNELS 3 Xrotation Zrotation Yrotation 
			JOINT neck
			{
				OFFSET 0.000000 10.266162 -0.273764
				CHANNELS 3 Xrotation Zrotation Yrotation 
				JOINT head
				{
					OFFSET 0.000000 3.148285 0.000000
					CHANNELS 3 Xrotation Zrotation Yrotation 
					End Site
					{
						OFFSET 0.000000 3.148289 0.000000
					}
				}
			}
			JOINT lCollar
			{
				OFFSET 3.422053 6.707223 -0.821293
				CHANNELS 3 Yrotation Zrotation Xrotation 
				JOINT lShldr
				{
					OFFSET 3.285171 0.000000 0.000000
					CHANNELS 3 Zrotation Yrotation Xrotation 
					JOINT lForeArm
					{
						OFFSET 10.129278 0.000000 0.000000
						CHANNELS 3 Yrotation Zrotation Xrotation 
						JOINT lHand
						{
							OFFSET 8.486692 0.000000 0.000000
							CHANNELS 3 Zrotation Yrotation Xrotation 
							End Site
							{
								OFFSET 4.106464 0.000000 0.000000
							}
						}
					}
				}
			}
			JOINT rCollar
			{
				OFFSET -3.558935 6.707223 -0.821293
				CHANNELS 3 Yrotation Zrotation Xrotation 
				JOINT rShldr
				{
					OFFSET -3.148289 0.000000 0.000000
					CHANNELS 3 Zrotation Yrotation Xrotation 
					JOINT rForeArm
					{
						OFFSET -10.266159 0.000000 0.000000
						CHANNELS 3 Yrotation Zrotation Xrotation 
						JOINT rHand
						{
							OFFSET -8.349810 0.000000 0.000000
							CHANNELS 3 Zrotation Yrotation Xrotation 
							End Site
							{
								OFFSET -4.106464 0.000000 0.000000
							}
						}
					}
				}
			}
		}
	}
	JOINT lThigh
	{
		OFFSET 5.338403 -1.642589 1.368821
		CHANNELS 3 Xrotation Zrotation Yrotation 
		JOINT lShin
		{
			OFFSET -2.053232 -20.121670 0.000000
			CHANNELS 3 Xrotation Zrotation Yrotation 
			JOINT lFoot
			{
				OFFSET 0.000000 -19.300380 -1.231939
				CHANNELS 3 Xrotation Yrotation Zrotation 
				End Site
				{
					OFFSET 0.000000 -2.463878 4.653993
				}
			}
		}
	}
	JOINT rThigh
	{
		OFFSET -5.338403 -1.642589 1.368821
		CHANNELS 3 Xrotation Zrotation Yrotation 
		JOINT rShin
		{
			OFFSET 2.053232 -20.121670 0.000000
			CHANNELS 3 Xrotation Zrotation Yrotation 
			JOINT rFoot
			{
				OFFSET 0.000000 -19.300380 -1.231939
				CHANNELS 3 Xrotation Yrotation Zrotation 
				End Site
				{
					OFFSET 0.000000 -2.463878 4.653993
				}
			}
		}
	}
}
MOTION
Frames: 13
Frame Time: 0.022176
0.826034 25.515091 0.186229 28.993402 0.000000 0.000000 -15.167695 -0.031847 -0.861885 29.191010 -1.558537 -2.352133 -19.004614 0.000000 0.000000 14.932844 0.000000 0.000000 -17.001984 -10.999638 -10.001739 -50.000977 -26.000612 -0.000850 -82.153091 -43.721115 -18.102478 54.061401 -13.885059 -0.550741 15.541191 8.413380 -10.046667 50.493301 24.584290 0.013841 82.144241 43.719261 -18.096294 -46.731335 13.904261 -1.729551 -29.896988 11.798069 10.421229 90.082222 1.363134 -0.518054 59.960743 8.976104 -14.940914 -29.933069 -11.930369 -10.528508 90.110466 -1.505192 0.624649 61.191051 -8.761580 15.056006 
0.826034 25.515091 0.111135 28.993402 0.000000 0.000000 -15.167695 -0.031847 -0.861885 28.898094 -1.558559 -2.352145 -19.004614 0.000000 0.000000 15.005895 0.000000 0.000000 -17.001984 -10.999638 -10.001739 -50.000977 -26.000614 -0.000850 -82.153091 -43.721115 -18.102478 54.333614 -13.582341 -0.747662 15.614259 8.242557 -10.046415 50.468864 24.754997 0.013777 82.144241 43.719261 -18.096294 -46.852070 13.610774 -1.850298 -30.105955 11.805355 10.409917 90.271889 1.382572 -0.514546 59.960743 8.976104 -14.940914 -30.142124 -11.937432 -10.516072 90.298744 -1.523889 0.619774 61.191051 -8.761580 15.056006 
0.826034 25.515091 0.036042 28.993402 0.000000 0.000000 -15.167695 -0.031847 -0.861885 28.605177 -1.558581 -2.352156 -19.004614 0.000000 0.000000 15.078944 0.000000 0.000000 -17.001984 -10.999638 -10.001739 -50.000980 -26.000616 -0.000849 -82.153091 -43.721115 -18.102478 54.604401 -13.278740 -0.942843 15.687288 8.071733 -10.045942 50.444397 24.925703 0.013630 82.144241 43.719261 -18.096294 -46.972019 13.317055 -1.970258 -30.314928 11.812600 10.398575 90.461548 1.401997 -0.510973 59.960743 8.976104 -14.940914 -30.351196 -11.944456 -10.503614 90.487045 -1.542570 0.614839 61.191051 -8.761580 15.056006 
0.826034 25.515091 -0.039051 28.993402 0.000000 0.000000 -15.167695 -0.031847 -0.861885 28.312263 -1.558602 -2.352166 -19.004614 0.000000 0.000000 15.151986 0.000000 0.000000 -17.001984 -10.999638 -10.001739 -50.000977 -26.000614 -0.000850 -82.153091 -43.721115 -18.102478 54.873768 -12.974268 -1.136293 15.760289 7.900914 -10.045250 50.419907 25.096415 0.013407 82.144241 43.719261 -18.096294 -47.091190 13.023106 -2.089437 -30.523905 11.819805 10.387208 90.651230 1.421411 -0.507336 59.960743 8.976104 -14.940914 -30.560265 -11.951432 -10.491128 90.675308 -1.561234 0.609842 61.191051 -8.761580 15.056006 
0.826034 25.515091 -0.114144 28.993402 0.000000 0.000000 -15.167695 -0.031847 -0.861885 28.019379 -1.558625 -2.352178 -19.004614 0.000000 0.000000 15.225021 0.000000 0.000000 -17.001984 -10.999638 -10.001739 -50.000977 -26.000614 -0.000850 -82.153091 -43.721115 -18.102478 55.141724 -12.668954 -1.328018 15.833268 7.730099 -10.044340 50.395378 25.267120 0.013101 82.144241 43.719261 -18.096294 -47.209587 12.728929 -2.207843 -30.732891 11.826971 10.375813 90.840881 1.440812 -0.503635 59.960743 8.976104 -14.940914 -30.769329 -11.958362 -10.478614 90.863586 -1.579881 0.604783 61.191051 -8.761580 15.056006 
0.826034 25.515091 -0.189237 28.993402 0.000000 0.000000 -15.167695 -0.031847 -0.861885 27.726498 -1.558647 -2.352189 -19.004614 0.000000 0.000000 15.298051 0.000000 0.000000 -17.001986 -10.999639 -10.001739 -50.000977 -26.000612 -0.000850 -82.153091 -43.721115 -18.102478 55.408279 -12.362812 -1.518027 15.906219 7.559292 -10.043213 50.370808 25.437822 0.012714 82.144241 43.719261 -18.096294 -47.327213 12.434542 -2.325481 -30.941856 11.834090 10.364390 91.030533 1.460199 -0.499869 59.960743 8.976104 -14.940914 -30.978401 -11.965248 -10.466077 91.051880 -1.598512 0.599664 61.191051 -8.761580 15.056006 
0.826034 25.515091 -0.264331 28.993402 0.000000 0.000000 -15.167695 -0.031847 -0.861885 27.433640 -1.558668 -2.352199 -19.004614 0.000000 0.000000 14.147638 0.000000 0.000000 -17.001986 -10.999639 -10.001739 -50.000977 -26.000614 -0.000850 -82.153091 -43.721115 -18.102478 55.673447 -12.055861 -1.706327 15.979136 7.388489 -10.041863 50.346207 25.608522 0.012242 82.144241 43.719261 -18.096294 -47.444084 12.139942 -2.442359 -31.150841 11.841173 10.352942 91.220200 1.479575 -0.496039 59.960743 8.976104 -14.940914 -31.187481 -11.972092 -10.453513 91.240166 -1.617125 0.594483 61.191051 -8.761580 15.056006 
0.826034 25.515091 -0.339424 28.993402 0.000000 0.000000 -15.167695 -0.031847 -0.861885 27.140810 -1.558691 -2.352209 -19.004614 0.000000 0.000000 12.992082 0.000000 0.000000 -17.001986 -10.999639 -10.001739 -50.000977 -26.000614 -0.000850 -82.153091 -43.721115 -18.102478 55.937237 -11.748124 -1.892926 16.052025 7.217693 -10.040297 50.321560 25.779207 0.011693 82.144241 43.719261 -18.096294 -47.560204 11.845146 -2.558483 -31.359818 11.848212 10.341468 91.409874 1.498936 -0.492146 59.960743 8.976104 -14.940914 -31.396540 -11.978887 -10.440924 91.428459 -1.635720 0.589242 61.191051 -8.761580 15.056006 
0.826034 25.515091 -0.414517 28.993402 0.000000 0.000000 -15.167695 -0.031847 -0.861885 26.848005 -1.558713 -2.352220 -19.004614 0.000000 0.000000 11.831583 0.000000 0.000000 -17.001986 -10.999639 -10.001739 -50.000977 -26.000614 -0.000850 -82.153091 -43.721115 -18.102478 56.199635 -11.439616 -2.077831 16.124897 7.046907 -10.038512 50.296890 25.949900 0.011060 82.144241 43.719261 -18.096294 -47.675568 11.550157 -2.673858 -31.568790 11.855212 10.329968 91.599518 1.518284 -0.488188 59.960751 8.976104 -14.940916 -31.605612 -11.985640 -10.428311 91.616707 -1.654297 0.583939 61.191051 -8.761580 15.056006 
0.826034 25.515091 -0.489611 28.993402 0.000000 0.000000 -15.167695 -0.031847 -0.861885 26.555235 -1.558735 -2.352230 -19.004614 0.000000 0.000000 10.666355 0.000000 0.000000 -17.001986 -10.999639 -10.001739 -50.000977 -26.000614 -0.000850 -82.153091 -43.721115 -18.102478 56.460686 -11.130363 -2.261051 16.197741 6.876131 -10.036510 50.272179 26.120581 0.010344 82.144241 43.719261 -18.096294 -47.790192 11.254981 -2.788493 -31.777760 11.862169 10.318442 91.789177 1.537618 -0.484167 59.960743 8.976104 -14.940914 -31.814663 -11.992340 -10.415668 91.804985 -1.672855 0.578576 61.191051 -8.761580 15.056006 
0.826034 25.515091 -0.564704 28.993402 0.000000 0.000000 -15.167695 -0.031847 -0.861885 26.262505 -1.558757 -2.352241 -19.004614 0.000000 0.000000 9.496606 0.000000 0.000000 -17.001984 -10.999637 -10.001739 -50.000980 -26.000616 -0.000849 -82.153091 -43.721115 -18.102478 56.720383 -10.820380 -2.442593 16.270561 6.705366 -10.034289 50.247429 26.291250 0.009544 82.144241 43.719261 -18.096294 -47.904087 10.959631 -2.902392 -31.986725 11.869088 10.306892 91.978813 1.556937 -0.480081 59.960751 8.976104 -14.940916 -32.023720 -11.999003 -10.403008 91.993240 -1.691395 0.573151 61.191051 -8.761580 15.056006 
0.826034 25.515091 -0.639797 28.993402 0.000000 0.000000 -15.167695 -0.031847 -0.861885 25.969809 -1.558779 -2.352251 -19.004614 0.000000 0.000000 8.322554 0.000000 0.000000 -17.001984 -10.999637 -10.001739 -50.000977 -26.000614 -0.000850 -82.153091 -43.721115 -18.102478 56.978745 -10.509690 -2.622467 16.343357 6.534613 -10.031850 50.222626 26.461906 0.008658 82.144241 43.719261 -18.096294 -48.017246 10.664110 -3.015561 -32.195671 11.875959 10.295314 92.168442 1.576241 -0.475932 59.960743 8.976104 -14.940914 -32.232769 -12.005617 -10.390320 92.181519 -1.709916 0.567667 61.191051 -8.761580 15.056006 
0.826034 25.515091 -0.714890 28.993402 0.000000 0.000000 -15.167695 -0.031847 -0.861885 25.677164 -1.558802 -2.352261 -19.004614 0.000000 0.000000 7.144425 0.000000 0.000000 -17.001984 -10.999637 -10.001739 -50.000977 -26.000614 -0.000850 -82.153091 -43.721115 -18.102478 57.235771 -10.198308 -2.800677 16.416136 6.363875 -10.029196 50.197796 26.632563 0.007692 82.144241 43.719261 -18.096294 -48.129673 10.368423 -3.128006 -32.404629 11.882792 10.283715 92.358063 1.595531 -0.471720 59.960751 8.976104 -14.940916 -32.441807 -12.012187 -10.377611 92.369759 -1.728418 0.562121 61.191051 -8.761580 15.056006 
